<svg width="50" height="50" viewBox="0 0 50 50" fill="none" xmlns="http://www.w3.org/2000/svg">
<path fill-rule="evenodd" clip-rule="evenodd" d="M29.6666 12.7813C29.6666 8.30208 28.1249 2.78125 28.1249 2.78125C36.2707 9.30208 41.6666 19.3229 41.6666 30.5521C41.6666 39.7604 34.2082 47.2188 24.9999 47.2188C15.7916 47.2188 8.33325 39.7604 8.33325 30.5521C8.33325 23.5104 10.8541 17.0313 15.0624 12.0313L14.9999 12.7813C14.9999 17.0729 18.2499 20.5521 22.5624 20.5521C26.8541 20.5521 29.6666 17.0729 29.6666 12.7813ZM12.4999 30.5521C12.4999 37.4479 18.1041 43.0521 24.9999 43.0521C31.8958 43.0521 37.4999 37.4479 37.4999 30.5521C37.4999 25.2188 36.1249 20.0729 33.5624 15.4896C32.4583 20.9063 28.1041 24.7188 22.5624 24.7188C19.3124 24.7188 16.3958 23.4271 14.2916 21.3229C13.1249 24.2188 12.4999 27.3646 12.4999 30.5521Z" fill="url(#paint0_linear)"/>
<defs>
<linearGradient id="paint0_linear" x1="24.9999" y1="2.78125" x2="24.9999" y2="47.2188" gradientUnits="userSpaceOnUse">
<stop offset="0.489583" stop-color="#FF6584"/>
<stop offset="1" stop-color="#FF7058"/>
</linearGradient>
</defs>
</svg>
