<svg width="1000" height="700" viewBox="0 0 1000 700" fill="none" xmlns="http://www.w3.org/2000/svg">
<g clip-path="url(#clip0)">
<path d="M917.115 232.878C897.992 232.878 882.49 249.344 882.49 269.655V295.462H890.782L895.583 285.9L894.383 295.462H947.685L952.05 286.77L950.959 295.462H956.96V275.199C956.96 251.826 939.121 232.878 917.115 232.878Z" fill="#2F2E41"/>
<path d="M884.593 352.19L878.842 373.289L932.52 371.455L931.561 354.025C931.561 354.025 891.303 343.933 884.593 352.19Z" fill="#C36C6C"/>
<path d="M832.833 436.589L850.086 473.283L866.382 454.019L852.962 428.333L832.833 436.589Z" fill="#C36C6C"/>
<path d="M875.967 571.443L877.883 613.643H898.971L896.095 571.443H875.967Z" fill="#C36C6C"/>
<path d="M851.046 398.059L860.631 428.332L875.009 575.113C875.009 575.113 888.428 578.782 898.013 574.195L899.93 554.013L903.764 438.423C903.764 438.423 921.976 429.25 920.059 416.406C918.142 403.563 913.35 386.133 913.35 386.133L851.046 398.059Z" fill="#2F2E41"/>
<path d="M880.759 603.552H875.008C875.008 603.552 858.713 620.064 852.962 621.899C847.211 623.734 817.497 639.329 841.46 642.082C865.423 644.834 880.759 632.908 880.759 632.908C880.759 632.908 888.427 637.495 898.971 633.825C909.515 630.156 903.764 619.147 903.764 619.147C903.764 619.147 898.411 602.369 898.212 602.502C898.013 602.634 892.261 610.891 880.759 603.552Z" fill="#2F2E41"/>
<path d="M910.473 289.808C922.649 289.808 932.519 280.361 932.519 268.708C932.519 257.055 922.649 247.609 910.473 247.609C898.297 247.609 888.427 257.055 888.427 268.708C888.427 280.361 898.297 289.808 910.473 289.808Z" fill="#C36C6C"/>
<path d="M943.061 296.23L932.92 304.321L931.559 305.403L930.601 316.412H893.219C893.219 316.412 898.318 312.183 903.053 307.807C903.149 307.706 903.255 307.596 903.37 307.495C904.012 306.899 904.587 306.348 905.104 305.853C905.382 305.578 905.651 305.321 905.89 305.082C906.283 304.688 906.667 304.312 907.05 303.936C907.055 303.931 907.059 303.924 907.06 303.917C908.041 302.935 908.962 301.899 909.82 300.817L909.83 300.807C910.06 300.515 910.274 300.212 910.472 299.899C913.348 295.312 906.638 286.139 906.638 286.139L927.725 276.047C928.463 285.992 937.253 292.634 941.183 295.129C942.333 295.853 943.061 296.23 943.061 296.23Z" fill="#C36C6C"/>
<path d="M994.822 450.349C980.445 454.019 979.486 426.497 979.486 426.497L959.863 388.935C955.716 380.998 952.865 372.5 951.408 363.736L946.897 336.594L945.526 338.163V338.172L943.062 339.346L928.09 316.412L923.892 309.99V302.651L938.27 296.23H944.021C944.021 296.23 944.146 296.211 944.366 296.193C947.012 295.927 964.226 294.826 965.108 310.908C965.455 317.219 965.425 322.448 965.246 326.551C964.7 337.902 965.825 349.27 968.589 360.321C969.604 364.305 970.711 367.766 971.818 369.62C975.652 376.042 989.071 426.497 989.071 426.497C989.071 426.497 1009.2 446.68 994.822 450.349Z" fill="#C46C6C"/>
<path d="M906.639 306.321L903.006 312.66L900.859 316.412L890.344 334.76C890.344 334.76 887.363 337.09 882.532 340.099C874.5 345.098 861.33 351.96 848.169 353.107C827.082 354.942 847.211 289.808 847.211 289.808C847.211 289.808 853.92 264.121 863.505 266.873C873.091 269.626 865.422 278.799 858.713 296.23C852.003 313.66 857.754 332.925 857.754 332.925C857.754 332.925 877.883 320.999 888.427 311.825C893.919 307.045 898.635 305.752 901.885 305.614H901.894C902.971 305.558 904.05 305.638 905.105 305.853C905.633 305.954 906.147 306.111 906.639 306.321Z" fill="#C46C6C"/>
<path d="M909.821 300.816C909.783 300.917 909.332 301.734 905.891 305.082C907.295 303.742 908.608 302.318 909.821 300.816Z" fill="#D0CDE1"/>
<path d="M946.417 337.053L945.526 338.172L931.56 361.364C931.56 361.364 913.348 354.942 899.929 353.107C896.242 352.498 892.45 352.956 889.036 354.422C885.623 355.888 882.744 358.295 880.768 361.336L884.593 346.685L882.532 340.099C882.292 339.328 882.015 338.475 881.717 337.512C878.842 328.338 889.385 318.247 889.385 318.247L901.885 305.614H901.894C902.971 305.558 904.05 305.638 905.105 305.853C904.587 306.348 904.012 306.899 903.37 307.495C903.255 307.596 903.15 307.706 903.054 307.807C899.383 311.394 901.29 312.394 903.006 312.66C903.573 312.743 904.148 312.771 904.722 312.742C908.719 313.293 917.47 309.935 923.892 307.128C928.263 305.22 931.56 303.569 931.56 303.569L939.928 296.23L941.184 295.129C942.334 295.853 943.062 296.23 943.062 296.23H944.021C944.021 296.23 944.145 296.211 944.366 296.193L940.001 299.292C937.828 300.836 936.093 302.875 934.954 305.224C933.814 307.573 933.307 310.158 933.477 312.742L946.417 337.053Z" fill="#D0CDE1"/>
<path d="M894.178 363.198L880.165 368.436C880.165 368.436 804.078 340.264 792.575 363.198C781.073 386.133 832.833 441.176 832.833 441.176L855.837 431.084L846.252 403.563C846.252 403.563 901.846 448.515 924.851 423.745C947.855 398.976 932.519 363.953 932.519 363.953C932.519 363.953 918.141 353.107 894.178 363.198Z" fill="#2F2E41"/>
<path d="M853.92 463.193L845.294 469.614C845.294 469.614 852.962 498.97 850.086 503.557C847.211 508.144 841.46 520.987 852.003 520.07C862.547 519.153 874.049 503.557 875.008 498.053C875.966 492.549 882.676 476.036 882.676 476.036C882.676 476.036 894.178 450.349 885.551 449.432C876.925 448.515 863.185 447.901 863.185 447.901L853.92 463.193Z" fill="#2F2E41"/>
<path d="M926.96 243.009C925.293 240.867 923.134 239.122 920.649 237.908C918.164 236.695 915.421 236.045 912.631 236.011H911.951C898.844 236.011 888.219 247.362 888.219 261.365V261.365H892.611L893.32 256.198L894.36 261.365H920.408L922.59 256.993L922.044 261.365H927.169C929.56 272.73 926.124 284.096 916.862 295.462H925.591L929.955 286.719L928.864 295.462H945.504L948.778 275.353C948.778 260.294 939.635 247.524 926.96 243.009Z" fill="#2F2E41"/>
<path d="M648.75 447.267C647.291 458.396 646.094 469.109 645.114 479.324H676.861C678.017 468.586 679.466 457.9 681.208 447.267H648.75Z" fill="#3F3D56"/>
<path d="M674.717 560.448C674.036 549.815 673.761 539.129 673.891 528.391H641.707C641.185 540.673 640.98 551.455 640.942 560.448H674.717Z" fill="#3F3D56"/>
<path d="M729.613 276.515C756.079 209.033 782.008 163.662 782.008 163.662L755.007 148.287C726.892 188.863 705.643 232.722 689.598 276.515H729.613Z" fill="#3F3D56"/>
<path d="M644.335 487.829C643.344 499.257 642.623 509.99 642.108 519.886H674.058C674.366 509.2 675.017 498.515 676.013 487.829H644.335Z" fill="#3F3D56"/>
<path d="M655.008 406.705C653.057 417.673 651.367 428.382 649.907 438.762H682.649C684.55 427.966 686.696 417.28 689.085 406.705H655.008Z" fill="#3F3D56"/>
<path d="M686.549 285.02C682.783 295.739 679.315 306.425 676.145 317.077H714.693C718.503 305.978 722.407 295.268 726.322 285.02H686.549Z" fill="#3F3D56"/>
<path d="M663.239 366.143C660.753 377.008 658.528 387.693 656.564 398.2H691.048C693.623 387.334 696.393 376.649 699.357 366.143H663.239Z" fill="#3F3D56"/>
<path d="M640.955 568.952C641.06 582.767 641.537 590.542 641.537 590.542L641.195 596.757H678.791C677.287 587.568 676.14 578.3 675.349 568.952H640.955Z" fill="#3F3D56"/>
<path d="M673.658 325.582C670.574 336.367 667.767 347.053 665.236 357.639H701.794C704.996 346.68 708.337 335.994 711.817 325.582H673.658Z" fill="#3F3D56"/>
<path d="M943.095 193.057C929.713 166.285 916.253 146.316 903.132 131.602L896.28 141.677L896.863 124.941C892.363 120.383 887.529 116.139 882.397 112.242L873.033 126.011L873.719 106.322C868.148 102.874 862.179 100.054 855.932 97.9173L849.006 108.101L849.426 96.0414C825.533 90.3025 805.9 98.1635 794.526 104.875L787.696 103.9L799.41 99.2179C798.342 92.9511 796.52 86.8235 793.982 80.9571L773.624 78.0502L789.464 71.7194C786.384 66.185 782.895 60.8685 779.023 55.8106L761.718 53.3397L773.309 48.7071C760.554 33.7005 742.46 17.4269 717.362 -3.05176e-05C717.362 -3.05176e-05 715.505 15.5224 714.47 37.1647L731.469 53.8078L714.005 49.485C713.822 56.132 713.744 63.1299 713.83 70.2697L726.366 82.5435L714.035 79.4912C714.214 84.9507 714.505 90.4382 714.928 95.8642C704.252 93.3951 693.108 93.456 682.463 96.0414L682.883 108.101L675.958 97.9173C669.71 100.054 663.741 102.874 658.17 106.322L658.856 126.011L649.492 112.242C644.36 116.139 639.526 120.383 635.026 124.941L635.609 141.677L628.757 131.602C615.636 146.316 602.176 166.285 588.795 193.057C588.795 193.057 605.082 192.004 627.51 189.073L641.547 170.068L640.256 187.288C647.12 186.261 654.326 185.072 661.648 183.703L672 169.688L671.087 181.847C681.3 179.734 691.543 177.259 701.218 174.376L708.166 180.562L695.738 178.081C692.916 183.828 690.797 189.867 689.423 196.079L704.494 209.497L687.69 206.143C686.959 212.374 686.694 218.647 686.898 224.914L699.709 236.32L687.413 233.866C689.063 253.146 694.367 276.361 704.766 304.319C704.766 304.319 715.471 292.524 729.114 275.236L724.931 252.309L736.779 265.328C740.857 259.945 745.058 254.216 749.206 248.282L746.121 231.374L754.487 240.566C762.888 228.013 770.745 214.845 776.532 202.303C784.013 211.644 792.026 220.584 800.536 229.08L806.944 218.545L807.239 235.707C812.48 240.788 817.732 245.658 822.796 250.21L831.872 235.29L832.272 258.561C849.07 273.083 861.903 282.74 861.903 282.74C866.62 253.408 867.264 229.653 865.094 210.42L853.5 215.044L863.84 201.535C862.808 195.343 861.315 189.23 859.372 183.242L843.527 189.562L851.062 179.718C854.299 180.465 857.546 181.175 860.802 181.847L859.89 169.688L870.242 183.703C877.564 185.072 884.77 186.261 891.634 187.288L890.342 170.068L904.379 189.073C926.808 192.004 943.095 193.057 943.095 193.057Z" fill="white"/>
<path d="M592.497 427.579C593.527 435.435 594.372 442.997 595.064 450.207H572.654C571.838 442.627 570.815 435.084 569.586 427.579H592.497Z" fill="#3F3D56"/>
<path d="M574.167 507.471C574.648 499.965 574.842 492.423 574.75 484.843H597.468C597.837 493.513 597.982 501.123 598.008 507.471H574.167Z" fill="#3F3D56"/>
<path d="M535.417 307.048C516.735 259.413 498.432 227.386 498.432 227.386L517.491 216.534C537.337 245.176 552.336 276.135 563.662 307.048H535.417Z" fill="#3F3D56"/>
<path d="M595.612 456.211C596.313 464.278 596.822 471.854 597.185 478.839H574.632C574.415 471.296 573.955 463.754 573.252 456.211H595.612Z" fill="#3F3D56"/>
<path d="M588.08 398.947C589.457 406.689 590.65 414.248 591.681 421.575H568.569C567.227 413.954 565.712 406.412 564.026 398.947H588.08Z" fill="#3F3D56"/>
<path d="M565.815 313.051C568.473 320.618 570.921 328.161 573.159 335.68H545.949C543.259 327.845 540.504 320.285 537.74 313.051H565.815Z" fill="#3F3D56"/>
<path d="M582.268 370.315C584.024 377.984 585.594 385.527 586.98 392.943H562.639C560.821 385.273 558.866 377.731 556.774 370.315H582.268Z" fill="#3F3D56"/>
<path d="M598 513.474C597.926 523.226 597.589 528.714 597.589 528.714L597.83 533.101H571.292C572.354 526.615 573.164 520.073 573.722 513.474H598Z" fill="#3F3D56"/>
<path d="M574.914 341.683C577.09 349.296 579.072 356.839 580.859 364.311H555.053C552.793 356.576 550.435 349.033 547.978 341.683H574.914Z" fill="#3F3D56"/>
<path d="M384.724 248.136C394.17 229.238 403.671 215.143 412.933 204.756L417.77 211.868L417.359 200.054C420.535 196.837 423.947 193.841 427.57 191.09L434.18 200.81L433.696 186.911C437.628 184.477 441.841 182.487 446.251 180.979L451.14 188.167L450.843 179.654C467.709 175.604 481.567 181.152 489.596 185.89L494.418 185.202L486.149 181.897C486.903 177.473 488.189 173.148 489.981 169.007L504.351 166.955L493.17 162.486C495.344 158.579 497.807 154.827 500.54 151.256L512.755 149.512L504.573 146.242C513.577 135.649 526.349 124.162 544.066 111.86C544.066 111.86 545.376 122.817 546.106 138.094L534.107 149.842L546.435 146.791C546.564 151.483 546.619 156.423 546.558 161.463L537.709 170.127L546.414 167.972C546.287 171.826 546.082 175.699 545.784 179.529C553.319 177.786 561.186 177.829 568.7 179.654L568.404 188.167L573.292 180.979C577.702 182.487 581.915 184.477 585.848 186.911L585.364 200.81L591.974 191.09C595.596 193.841 599.009 196.837 602.185 200.054L601.773 211.868L606.61 204.756C615.872 215.143 625.373 229.238 634.819 248.136C634.819 248.136 623.322 247.393 607.49 245.324L597.582 231.909L598.493 244.064C593.648 243.339 588.562 242.5 583.393 241.533L576.086 231.64L576.73 240.223C569.521 238.732 562.29 236.985 555.461 234.95L550.557 239.316L559.329 237.565C561.322 241.621 562.817 245.884 563.787 250.269L553.149 259.741L565.01 257.373C565.526 261.772 565.713 266.2 565.569 270.624L556.526 278.675L565.206 276.942C564.041 290.552 560.297 306.939 552.957 326.674C552.957 326.674 545.4 318.348 535.77 306.145L538.722 289.961L530.359 299.151C527.48 295.351 524.516 291.307 521.587 287.118L523.765 275.183L517.859 281.672C511.974 273.054 506.772 264.026 502.298 254.663C497.017 261.257 491.361 267.567 485.354 273.564L480.831 266.128L480.622 278.242C476.923 281.829 473.216 285.266 469.641 288.479L463.234 277.948L462.952 294.374C451.095 304.625 442.036 311.442 442.036 311.442C438.707 290.737 438.252 273.968 439.783 260.392L447.968 263.657L440.669 254.121C441.397 249.75 442.451 245.435 443.823 241.208L455.007 245.669L449.689 238.72C447.404 239.248 445.112 239.749 442.813 240.223L443.457 231.64L436.15 241.534C430.981 242.5 425.895 243.339 421.05 244.064L421.962 231.909L412.053 245.324C396.221 247.393 384.724 248.136 384.724 248.136Z" fill="white"/>
<path d="M329.581 610.529C400.322 610.529 457.668 605.32 457.668 598.894C457.668 592.468 400.322 587.258 329.581 587.258C258.841 587.258 201.495 592.468 201.495 598.894C201.495 605.32 258.841 610.529 329.581 610.529Z" fill="#3F3D56"/>
<path d="M637.858 610.529C708.599 610.529 765.945 605.32 765.945 598.894C765.945 592.468 708.599 587.258 637.858 587.258C567.118 587.258 509.772 592.468 509.772 598.894C509.772 605.32 567.118 610.529 637.858 610.529Z" fill="#3F3D56"/>
<path d="M735.117 480.46C735.117 480.46 744.365 541.921 699.965 578.257C671.23 601.77 630.26 605.618 596.636 589.07C584.148 582.928 570.827 573.595 558.105 559.507C553.302 554.171 548.875 548.535 544.854 542.636C539.015 534.055 533.868 525.062 529.457 515.732C526.679 509.923 524.024 503.706 521.494 497.082C521.008 495.811 520.557 494.564 520.122 493.326C497.067 427.742 541.91 408.61 583.072 404.022C591.709 403.092 600.397 402.673 609.088 402.767C619.293 402.815 629.484 403.504 639.595 404.828C639.595 404.828 640.437 404.837 641.957 404.895C649.8 405.243 657.611 406.073 665.342 407.38C697.143 412.724 745.816 429.28 735.117 480.46Z" fill="#FF7058"/>
<path d="M452.024 497.082C431.755 550.332 402.569 576.429 376.882 589.07C343.258 605.618 302.288 601.769 273.553 578.257C270.8 576.007 268.19 573.6 265.738 571.051C260.704 565.837 256.329 560.074 252.703 553.881C248.116 546.002 244.588 537.599 242.204 528.872C239.585 519.3 238.08 509.481 237.715 499.592C237.398 493.208 237.627 486.809 238.401 480.46C228.388 432.546 270.401 414.985 301.897 408.552C311.005 406.706 320.244 405.515 329.538 404.986C332.325 404.837 333.923 404.828 333.923 404.828C350.49 402.688 367.246 402.211 383.916 403.407C427.414 406.765 479.508 424.883 452.024 497.082Z" fill="#FF6584"/>
<path opacity="0.2" d="M329.538 404.986L242.204 528.872C239.585 519.3 238.079 509.481 237.715 499.592L301.897 408.552C311.005 406.706 320.244 405.515 329.538 404.986Z" fill="white"/>
<path opacity="0.2" d="M383.916 403.407L265.738 571.052C260.704 565.837 256.329 560.074 252.703 553.881L359.167 402.859C367.421 402.612 375.683 402.796 383.916 403.407Z" fill="white"/>
<path opacity="0.2" d="M609.088 402.767L529.457 515.732C526.678 509.923 524.024 503.706 521.494 497.082C521.008 495.811 520.556 494.564 520.122 493.326L583.071 404.022C591.708 403.092 600.397 402.673 609.088 402.767Z" fill="white"/>
<path opacity="0.2" d="M665.343 407.38L558.106 559.507C553.302 554.171 548.876 548.535 544.854 542.636L641.957 404.895C649.8 405.243 657.611 406.073 665.343 407.38Z" fill="white"/>
<path d="M755.958 474.642H736.083C744.879 405.627 639.595 404.828 639.595 404.828C622.903 402.676 606.022 402.21 589.229 403.439V403.166H383.421V403.373C366.914 402.226 350.326 402.713 333.923 404.828C333.923 404.828 228.639 405.627 237.435 474.642H218.428V492.927H237.608C237.416 512.791 241.536 552.055 273.553 578.257C302.288 601.77 343.259 605.618 376.882 589.07C402.569 576.429 431.756 550.332 452.024 497.082C458.967 478.839 460.829 464.051 459.034 452.079C477.506 451.189 496.012 451.189 514.484 452.079C512.689 464.051 514.551 478.839 521.495 497.082C541.763 550.332 570.949 576.429 596.636 589.07C630.26 605.618 671.23 601.77 699.965 578.257C731.982 552.055 736.102 512.791 735.91 492.927H755.958V474.642ZM442.871 497.423C423.584 548.096 395.449 571.8 371.316 582.737C341.956 596.043 306.969 592.345 281.768 572.739C251.305 549.035 247.25 512.607 247.363 494.04C247.415 486.66 247.068 479.296 246.764 471.924C244.358 413.987 335.191 413.306 335.191 413.306C335.191 413.306 483.26 391.331 442.871 497.423ZM515.285 447.917C496.296 446.507 477.222 446.507 458.233 447.917C453.469 427.566 437.412 416.096 418.342 409.815H555.176C536.107 416.096 520.049 427.566 515.285 447.917H515.285ZM727.692 471.658C727.38 479.097 727.033 486.535 727.085 493.974C727.206 512.715 723.107 549.484 692.367 573.395C666.94 593.184 631.649 596.924 602.029 583.51C577.662 572.481 549.248 548.562 529.77 497.39C489.017 390.317 638.449 412.5 638.449 412.5C638.449 412.5 730.115 413.181 727.692 471.658Z" fill="#3F3D56"/>
<path d="M350.763 592.447C350.665 592.293 348.346 588.587 347.542 580.892C346.804 573.833 347.279 561.933 353.727 545.334C365.942 513.888 350.911 488.516 350.758 488.263L351.499 487.851C354.394 493.152 356.484 498.82 357.708 504.685C360.736 518.342 359.633 532.541 354.53 545.62C342.335 577.012 351.402 591.873 351.494 592.019L350.763 592.447Z" fill="#3F3D56"/>
<path d="M345.985 486.416C349.062 486.416 351.556 484.029 351.556 481.085C351.556 478.14 349.062 475.753 345.985 475.753C342.909 475.753 340.414 478.14 340.414 481.085C340.414 484.029 342.909 486.416 345.985 486.416Z" fill="#3F3D56"/>
<path d="M363.556 506.103C366.632 506.103 369.126 503.716 369.126 500.771C369.126 497.827 366.632 495.439 363.556 495.439C360.479 495.439 357.985 497.827 357.985 500.771C357.985 503.716 360.479 506.103 363.556 506.103Z" fill="#3F3D56"/>
<path d="M351.557 519.228C354.634 519.228 357.128 516.841 357.128 513.896C357.128 510.951 354.634 508.564 351.557 508.564C348.481 508.564 345.986 510.951 345.986 513.896C345.986 516.841 348.481 519.228 351.557 519.228Z" fill="white"/>
<path d="M366.126 530.302C369.203 530.302 371.698 527.914 371.698 524.97C371.698 522.025 369.203 519.638 366.126 519.638C363.05 519.638 360.555 522.025 360.555 524.97C360.555 527.914 363.05 530.302 366.126 530.302Z" fill="white"/>
<path d="M347.272 547.528C350.348 547.528 352.843 545.14 352.843 542.196C352.843 539.251 350.348 536.864 347.272 536.864C344.195 536.864 341.701 539.251 341.701 542.196C341.701 545.14 344.195 547.528 347.272 547.528Z" fill="#3F3D56"/>
<path d="M354.128 592.643C354.128 592.643 348.557 579.519 365.27 569.675L354.128 592.643Z" fill="#3F3D56"/>
<path d="M347.277 592.405C347.277 592.405 344.742 578.448 325.118 578.568L347.277 592.405Z" fill="#3F3D56"/>
<path d="M294.256 283.602C294.245 284.461 294.015 285.304 293.587 286.058C293.159 286.813 292.545 287.456 291.798 287.932L291.59 288.057H198.846L199.22 286.968C199.281 286.777 206.071 267.919 236.126 271.559C238.957 270.628 266.624 261.985 283.184 271.7C290.53 276.006 294.256 280.012 294.256 283.602Z" fill="#F1F1F1"/>
<path d="M466.195 347.598C466.184 348.456 465.955 349.3 465.526 350.054C465.098 350.809 464.484 351.452 463.738 351.928L463.529 352.053H370.786L371.16 350.964C371.22 350.773 378.011 331.915 408.066 335.555C410.897 334.624 438.563 325.981 455.123 335.696C462.47 340.001 466.195 344.007 466.195 347.598Z" fill="#F1F1F1"/>
<path d="M505.273 89.9522C505.262 90.8108 505.032 91.6538 504.604 92.4083C504.176 93.1628 503.562 93.8061 502.815 94.2823L502.607 94.407H409.863L410.237 93.3182C410.297 93.1271 417.088 74.2691 447.143 77.9093C449.974 76.9785 477.641 68.3349 494.201 78.0506C501.548 82.3558 505.273 86.3618 505.273 89.9522Z" fill="#F1F1F1"/>
<path d="M25.1478 518.62L33.0823 542.125C33.0823 542.125 25.9035 564.184 29.304 588.774C32.7045 613.364 30.8153 614.087 30.8153 614.087C30.8153 614.087 -3.16129 612.215 0.239227 621.979C3.63974 631.742 36.8607 626.02 36.8607 626.02C36.8607 626.02 43.241 624.376 46.2636 607.019C49.2863 589.661 56.886 556.228 56.886 556.228L49.7397 524.666L25.1478 518.62Z" fill="#C46C6C"/>
<path d="M27.7922 470.524C27.7922 470.524 13.4344 475.587 13.4344 489.328C13.4344 503.07 18.7241 521.874 22.1247 522.959C25.5252 524.044 48.1953 538.87 52.3515 528.383C56.5077 517.896 27.7922 470.524 27.7922 470.524Z" fill="#D0CDE1"/>
<path d="M147.944 633.253L178.171 632.168L201.219 628.913L194.418 650.61L138.499 652.057L147.944 633.253Z" fill="#C46C6C"/>
<path d="M191.395 636.146C191.395 636.146 191.017 628.19 187.617 628.552C184.216 628.913 186.483 625.659 189.506 624.936C192.528 624.212 201.219 620.596 201.219 620.596L235.602 622.766C235.602 622.766 257.894 641.57 248.826 651.695C239.758 661.821 216.332 652.78 216.332 652.78L191.017 653.142C191.017 653.142 182.705 640.124 191.395 636.146Z" fill="#2F2E41"/>
<path d="M204.998 608.301L215.955 657.481L238.625 653.142L225.779 591.667L212.176 584.796L204.998 608.301Z" fill="#C36C6C"/>
<path d="M74.6446 602.154C74.6446 602.154 11.1682 629.637 37.9945 657.481C37.9945 657.481 37.9945 670.5 66.3322 667.968C94.6698 665.437 149.456 660.736 152.101 662.182C154.746 663.629 163.058 633.615 155.879 632.168C148.7 630.722 140.01 628.913 140.01 628.913C140.01 628.913 147.567 627.829 147.567 621.681C147.567 621.681 169.103 620.235 175.527 607.216C181.95 594.198 187.995 584.434 187.995 584.434L202.731 620.596C202.731 620.596 219.733 590.582 232.58 603.962C232.58 603.962 218.222 517.535 207.265 509.579C196.308 501.624 188.751 499.092 178.549 506.325C168.348 513.557 158.902 532 158.902 532L74.6446 602.154Z" fill="#2F2E41"/>
<path d="M226.157 642.655C223.515 644.562 220.992 646.615 218.6 648.803C215.577 651.695 211.421 650.249 211.043 648.803C210.665 647.356 203.864 649.887 203.109 660.374C202.353 670.861 197.819 680.263 209.91 683.518C222 686.773 221.623 696.175 221.623 696.175C231.189 700.567 242.169 701.216 252.227 697.983C269.23 692.558 263.185 686.773 263.185 686.773L240.514 650.972C240.514 650.972 234.469 640.124 226.157 642.655Z" fill="#2F2E41"/>
<path d="M163.435 463.292C163.435 463.292 199.708 475.225 203.486 477.756C207.264 480.288 224.267 492.221 215.955 498.369C207.642 504.516 200.841 508.494 184.594 503.793C168.347 499.092 150.211 484.627 150.211 484.627L163.435 463.292Z" fill="#C36C6C"/>
<path d="M127.163 447.38C127.163 447.38 141.521 444.849 151.722 450.273C161.924 455.698 170.614 466.546 170.614 466.546C170.614 466.546 161.168 485.712 154.367 488.605C147.566 491.498 135.098 477.033 135.098 477.033L127.163 447.38Z" fill="#D0CDE1"/>
<path d="M61.0426 436.894C61.0426 436.894 61.4205 450.997 59.9091 452.443C58.3978 453.89 78.0452 496.561 99.5818 477.757C121.118 458.952 104.494 451.358 104.494 451.358C104.494 451.358 96.5592 437.255 96.937 435.809C97.3149 434.362 61.7983 435.809 61.7983 435.809L61.0426 436.894Z" fill="#D78484"/>
<path opacity="0.1" d="M61.0426 436.894C61.0426 436.894 61.4205 450.997 59.9091 452.443C58.3978 453.89 78.0452 496.561 99.5818 477.757C121.118 458.952 104.494 451.358 104.494 451.358C104.494 451.358 96.5592 437.255 96.937 435.809C97.3149 434.362 61.7983 435.809 61.7983 435.809L61.0426 436.894Z" fill="#C46C6C"/>
<path d="M67.0872 464.015C67.0872 464.015 81.4449 473.417 87.4903 471.247C93.5357 469.078 101.092 459.676 101.848 458.952C102.604 458.229 141.143 532.361 141.143 532.361C141.143 532.361 135.475 559.483 120.362 567.438C105.249 575.394 105.438 581.722 103.548 587.146C101.659 592.571 77.2888 569.969 77.2888 569.969L61.7975 507.048V468.716L67.0872 464.015Z" fill="#D0CDE1"/>
<path d="M60.8533 447.2C60.8533 447.2 56.1304 446.296 51.2185 450.274C46.3067 454.251 23.2587 469.078 24.3922 470.524C25.5258 471.971 35.7272 492.583 37.9943 500.9C40.2613 509.217 43.6618 510.302 43.6618 510.302C43.6618 510.302 51.5964 515.727 50.4629 519.704C49.3293 523.682 44.4175 577.925 51.2185 589.859C58.0196 601.792 56.8861 612.279 54.9969 615.172C53.1077 618.065 73.133 606.855 73.133 606.855C73.133 606.855 102.982 583.711 105.249 576.84C106.715 572.117 107.727 567.275 108.272 562.376C108.272 562.376 89.0021 489.328 82.9567 485.351C76.9113 481.373 60.8533 447.2 60.8533 447.2Z" fill="#575A89"/>
<path d="M102.362 447.486C102.362 447.486 111.673 441.956 113.562 443.403C115.451 444.849 133.209 444.849 133.587 446.296C133.965 447.742 134.721 482.458 147.567 491.498C160.413 500.539 152.101 518.619 152.101 518.619L161.547 533.084C161.547 533.084 110.162 580.453 113.562 564.184C113.751 563.279 113.562 563.099 113.562 563.099C113.562 563.099 93.5364 481.011 96.1812 476.672C98.8261 472.332 103.632 452.654 102.362 447.486Z" fill="#575A89"/>
<path d="M181.571 480.65L130.186 497.646C130.186 497.646 79.1781 509.217 87.1126 522.597C95.0472 535.977 128.675 513.195 128.675 513.195L197.103 505.857C197.103 505.857 224.267 483.904 181.571 480.65Z" fill="#C46C6C"/>
<path d="M81.4455 450.273C96.8873 450.273 109.405 438.293 109.405 423.514C109.405 408.735 96.8873 396.754 81.4455 396.754C66.0038 396.754 53.4857 408.735 53.4857 423.514C53.4857 438.293 66.0038 450.273 81.4455 450.273Z" fill="#C36C6C"/>
<path d="M59.1794 396.919L54.0074 395.119C54.0074 395.119 64.8215 384.769 79.8674 385.669L75.6356 381.619C75.6356 381.619 85.9796 378.019 95.3832 387.469C100.326 392.437 106.046 398.276 109.611 404.854H115.15L112.838 409.279L120.929 413.704L112.625 412.909C113.412 416.729 113.141 420.68 111.839 424.369L109.959 429.319C109.959 429.319 102.436 414.919 102.436 413.119V417.619C102.436 417.619 97.2638 413.569 97.2638 410.869L94.4428 414.019L93.0323 409.069L75.6356 414.019L78.4567 409.969L67.6426 411.319L71.8743 406.369C71.8743 406.369 59.6497 412.219 59.1794 417.169C58.7091 422.119 52.5971 428.419 52.5971 428.419L49.776 423.919C49.776 423.919 45.5443 403.669 59.1794 396.919Z" fill="#2F2E41"/>
<path d="M106.288 424.965C106.288 424.965 107.207 431.071 102.796 434.681C101.389 435.814 99.6618 436.521 97.8341 436.712C96.0063 436.903 94.1603 436.57 92.5307 435.756C91.0687 435.022 89.7688 434.025 88.7028 432.819C88.2256 432.288 87.7858 431.728 87.3863 431.142C86.8062 430.29 86.2949 429.396 85.8567 428.47C85.5806 427.892 85.3169 427.275 85.0656 426.617C85.0173 426.491 84.9724 426.367 84.9293 426.244C82.6388 419.728 87.0938 417.827 91.1831 417.372C92.0412 417.279 92.9044 417.238 93.7678 417.247C94.7817 417.252 95.7941 417.32 96.7985 417.452C96.7985 417.452 96.8822 417.453 97.0332 417.458C97.8124 417.493 98.5884 417.575 99.3565 417.705C102.516 418.236 107.351 419.881 106.288 424.965Z" fill="#FF7058"/>
<path d="M78.1639 426.617C76.1503 431.907 73.2507 434.5 70.6988 435.756C69.0691 436.57 67.2232 436.903 65.3954 436.712C63.5676 436.521 61.8405 435.814 60.4333 434.681C60.1598 434.458 59.9005 434.219 59.6569 433.965C59.1568 433.447 58.7222 432.875 58.3619 432.26C57.9062 431.477 57.5557 430.642 57.3189 429.775C57.0587 428.824 56.9091 427.849 56.8729 426.866C56.8414 426.232 56.8642 425.596 56.941 424.965C55.9463 420.205 60.1202 418.461 63.2492 417.822C64.1541 417.638 65.072 417.52 65.9953 417.467C66.2722 417.452 66.4309 417.452 66.4309 417.452C68.0768 417.239 69.7414 417.192 71.3976 417.31C75.7189 417.644 80.8944 419.444 78.1639 426.617Z" fill="#FD287B"/>
<path opacity="0.2" d="M65.995 417.467L57.3186 429.775C57.0584 428.824 56.9088 427.849 56.8726 426.866L63.2489 417.822C64.1538 417.638 65.0717 417.52 65.995 417.467Z" fill="white"/>
<path opacity="0.2" d="M71.3969 417.31L59.6562 433.965C59.1561 433.447 58.7215 432.875 58.3612 432.26L68.9381 417.256C69.7581 417.231 70.5789 417.25 71.3969 417.31Z" fill="white"/>
<path opacity="0.2" d="M93.7671 417.247L85.856 428.47C85.58 427.893 85.3163 427.275 85.0649 426.617C85.0166 426.491 84.9717 426.367 84.9286 426.244L91.1824 417.372C92.0405 417.279 92.9037 417.238 93.7671 417.247Z" fill="white"/>
<path opacity="0.2" d="M99.356 417.705L88.7023 432.819C88.2252 432.288 87.7854 431.729 87.3859 431.142L97.0328 417.458C97.8119 417.493 98.5879 417.575 99.356 417.705Z" fill="white"/>
<path d="M108.359 424.387H106.384C107.258 417.531 96.7984 417.452 96.7984 417.452C95.1402 417.238 93.463 417.192 91.7946 417.314V417.287H71.3483V417.307C69.7083 417.193 68.0604 417.242 66.4308 417.452C66.4308 417.452 55.971 417.531 56.8449 424.387H54.9567V426.204H56.8621C56.843 428.178 57.2523 432.078 60.4332 434.681C61.8404 435.814 63.5675 436.521 65.3953 436.712C67.2231 436.903 69.069 436.571 70.6987 435.756C73.2506 434.5 76.1502 431.907 78.1638 426.617C78.7752 425.204 79.0144 423.668 78.8602 422.146C80.6953 422.058 82.5339 422.058 84.369 422.146C84.2148 423.668 84.454 425.204 85.0655 426.617C87.079 431.907 89.9786 434.5 92.5305 435.756C94.1602 436.571 96.0061 436.903 97.8339 436.712C99.6617 436.521 101.389 435.814 102.796 434.681C105.977 432.078 106.386 428.178 106.367 426.204H108.359V424.387ZM77.2544 426.651C75.3383 431.685 72.5431 434.04 70.1456 435.126C68.7154 435.779 67.1218 436.032 65.5479 435.857C63.9741 435.681 62.4841 435.083 61.2493 434.133C58.2229 431.778 57.82 428.159 57.8312 426.315C57.8364 425.581 57.8019 424.85 57.7717 424.117C57.5327 418.362 66.5567 418.294 66.5567 418.294C66.5567 418.294 81.2669 416.111 77.2544 426.651ZM84.4486 421.732C82.5621 421.592 80.6671 421.592 78.7806 421.732C78.3073 419.711 76.7121 418.571 74.8176 417.947H88.4116C86.5171 418.571 84.9219 419.711 84.4486 421.732ZM105.551 424.091C105.52 424.83 105.485 425.569 105.49 426.308C105.502 428.17 105.095 431.823 102.041 434.198C100.796 435.157 99.2927 435.761 97.705 435.938C96.1173 436.116 94.5094 435.861 93.0663 435.203C90.6455 434.108 87.8227 431.731 85.8876 426.647C81.8389 416.01 96.6845 418.214 96.6845 418.214C96.6845 418.214 105.791 418.281 105.551 424.091Z" fill="#3F3D56"/>
</g>
<defs>
<clipPath id="clip0">
<rect width="1000" height="700" fill="white"/>
</clipPath>
</defs>
</svg>
