<svg width="321" height="448" viewBox="0 0 321 448" fill="none" xmlns="http://www.w3.org/2000/svg">
<path d="M314.5 247.2C309.5 235.7 301.8 225.6 286.4 217.1C278.44 212.6 269.891 209.234 261 207.1C266.982 204.321 272.484 200.608 277.3 196.1C284.38 189.771 289.746 181.757 292.9 172.8C295.804 163.698 296.99 154.136 296.4 144.6C295.3 127.8 292 111.5 283.2 99.8C274.4 88.1 262 79.1 245.6 72.8C233 68 220.1 65 200.1 63.9V0L160.1 25V64H128.1V23L87.1 0V64H0L28 112C36.65 112.01 42.51 112.81 45.5 114.3C48.2912 115.495 50.5863 117.613 52 120.3C53.3 122.8 53.9 128.7 53.9 137.8V311C53.9 320 53.3 325.8 52 328.4C50.7 331 50 333.3 46.9 334.7C43.8 336.1 43.7 336 35.1 336H35L0 384H87V448H128V384H160V448H200V383.6C226 382.3 244.5 378.9 259.4 373.3C278.7 366.1 293.5 355.6 304.1 341.8C314.7 328 319 306.9 319.9 290.6C320.6 276.1 319 257.4 314.5 247.2ZM128 118H128.01V116.67H155.97C171.7 116.67 224.12 111.43 224.99 154.24C225.87 197.05 155.97 195.3 155.97 195.3H128.01V192H128V118ZM128 240H160C166.5 240 188.86 240.99 197 241.36C200.319 241.481 203.604 242.066 206.76 243.1C207.91 243.49 209 243.93 210.18 244.42C215.112 246.014 219.765 248.369 223.97 251.4C226.711 253.21 229.123 255.476 231.1 258.1C231.957 259.284 232.744 260.516 233.46 261.79C235.353 264.994 236.759 268.462 237.63 272.08C238.583 275.574 239.077 279.178 239.1 282.8C239.1 290.59 237.66 297.04 234.11 302.5C229.3 310.56 221.41 316.27 212.53 320.3C189.57 330.74 160 330 160 330H128V240Z" fill="#FDD400"/>
</svg>
