<svg width="150" height="150" viewBox="0 0 150 150" fill="none" xmlns="http://www.w3.org/2000/svg">
<g id="whatshot_24px">
<path id="icon/social/whatshot_24px" fill-rule="evenodd" clip-rule="evenodd" d="M89 38.3438C89 24.9063 84.375 8.34378 84.375 8.34378C108.812 27.9063 125 57.9688 125 91.6563C125 119.281 102.625 141.656 75 141.656C47.375 141.656 25 119.281 25 91.6563C25 70.5313 32.5625 51.0938 45.1875 36.0938L45 38.3438C45 51.2188 54.75 61.6563 67.6875 61.6563C80.5625 61.6563 89 51.2188 89 38.3438ZM37.5 91.6563C37.5 112.344 54.3125 129.156 75 129.156C95.6875 129.156 112.5 112.344 112.5 91.6563C112.5 75.6563 108.375 60.2188 100.688 46.4688C97.375 62.7188 84.3125 74.1563 67.6875 74.1563C57.9375 74.1563 49.1875 70.2813 42.875 63.9688C39.375 72.6563 37.5 82.0938 37.5 91.6563Z" fill="white"/>
</g>
</svg>
