<svg width="2440" height="2440" viewBox="0 0 2440 2440" fill="none" xmlns="http://www.w3.org/2000/svg">
<g filter="url(#filter0_d)">
<circle cx="1220" cy="1220" r="1150" fill="white"/>
</g>
<path d="M412.505 1388.74H645.781V1477H302.642V943.797H412.505V1388.74ZM1123.69 1222.48C1123.69 1274.97 1114.41 1320.99 1095.85 1360.54C1077.3 1400.1 1050.69 1430.61 1016.02 1452.1C981.597 1473.58 942.046 1484.32 897.368 1484.32C853.179 1484.32 813.75 1473.7 779.082 1452.46C744.414 1431.22 717.559 1400.95 698.516 1361.64C679.473 1322.09 669.829 1276.68 669.585 1225.41V1199.05C669.585 1146.56 678.984 1100.41 697.783 1060.62C716.826 1020.58 743.56 989.939 777.983 968.699C812.651 947.215 852.202 936.473 896.636 936.473C941.069 936.473 980.498 947.215 1014.92 968.699C1049.59 989.939 1076.32 1020.58 1095.12 1060.62C1114.17 1100.41 1123.69 1146.43 1123.69 1198.68V1222.48ZM1012.36 1198.31C1012.36 1142.41 1002.35 1099.92 982.329 1070.87C962.31 1041.82 933.745 1027.29 896.636 1027.29C859.771 1027.29 831.328 1041.7 811.309 1070.51C791.289 1099.07 781.157 1141.06 780.913 1196.48V1222.48C780.913 1276.93 790.923 1319.16 810.942 1349.19C830.962 1379.22 859.771 1394.24 897.368 1394.24C934.233 1394.24 962.554 1379.83 982.329 1351.02C1002.1 1321.97 1012.11 1279.73 1012.36 1224.31V1198.31ZM1625.4 1409.62C1605.62 1433.3 1577.67 1451.73 1541.53 1464.92C1505.4 1477.85 1465.36 1484.32 1421.42 1484.32C1375.27 1484.32 1334.75 1474.31 1299.83 1454.29C1265.17 1434.03 1238.31 1404.73 1219.27 1366.4C1200.47 1328.07 1190.83 1283.03 1190.34 1231.27V1195.02C1190.34 1141.79 1199.25 1095.77 1217.07 1056.96C1235.14 1017.89 1261.02 988.108 1294.71 967.601C1328.64 946.849 1368.32 936.473 1413.73 936.473C1476.96 936.473 1526.4 951.609 1562.04 981.883C1597.69 1011.91 1618.8 1055.74 1625.4 1113.35H1518.46C1513.58 1082.83 1502.71 1060.5 1485.87 1046.34C1469.27 1032.18 1446.32 1025.1 1417.02 1025.1C1379.67 1025.1 1351.23 1039.13 1331.69 1067.21C1312.16 1095.29 1302.28 1137.03 1302.03 1192.45V1226.51C1302.03 1282.42 1312.65 1324.66 1333.89 1353.22C1355.13 1381.79 1386.26 1396.07 1427.28 1396.07C1468.54 1396.07 1497.95 1387.28 1515.53 1369.7V1277.78H1415.56V1196.85H1625.4V1409.62ZM2152.74 1222.48C2152.74 1274.97 2143.46 1320.99 2124.91 1360.54C2106.35 1400.1 2079.74 1430.61 2045.07 1452.1C2010.65 1473.58 1971.1 1484.32 1926.42 1484.32C1882.23 1484.32 1842.8 1473.7 1808.13 1452.46C1773.47 1431.22 1746.61 1400.95 1727.57 1361.64C1708.53 1322.09 1698.88 1276.68 1698.64 1225.41V1199.05C1698.64 1146.56 1708.04 1100.41 1726.84 1060.62C1745.88 1020.58 1772.61 989.939 1807.04 968.699C1841.7 947.215 1881.25 936.473 1925.69 936.473C1970.12 936.473 2009.55 947.215 2043.97 968.699C2078.64 989.939 2105.38 1020.58 2124.17 1060.62C2143.22 1100.41 2152.74 1146.43 2152.74 1198.68V1222.48ZM2041.41 1198.31C2041.41 1142.41 2031.4 1099.92 2011.38 1070.87C1991.36 1041.82 1962.8 1027.29 1925.69 1027.29C1888.82 1027.29 1860.38 1041.7 1840.36 1070.51C1820.34 1099.07 1810.21 1141.06 1809.97 1196.48V1222.48C1809.97 1276.93 1819.98 1319.16 1840 1349.19C1860.01 1379.22 1888.82 1394.24 1926.42 1394.24C1963.29 1394.24 1991.61 1379.83 2011.38 1351.02C2031.16 1321.97 2041.17 1279.73 2041.41 1224.31V1198.31Z" fill="black"/>
<defs>
<filter id="filter0_d" x="0" y="0" width="2440" height="2440" filterUnits="userSpaceOnUse" color-interpolation-filters="sRGB">
<feFlood flood-opacity="0" result="BackgroundImageFix"/>
<feColorMatrix in="SourceAlpha" type="matrix" values="0 0 0 0 0 0 0 0 0 0 0 0 0 0 0 0 0 0 127 0"/>
<feOffset/>
<feGaussianBlur stdDeviation="35"/>
<feColorMatrix type="matrix" values="0 0 0 0 0 0 0 0 0 0 0 0 0 0 0 0 0 0 0.1 0"/>
<feBlend mode="darken" in2="BackgroundImageFix" result="effect1_dropShadow"/>
<feBlend mode="normal" in="SourceGraphic" in2="effect1_dropShadow" result="shape"/>
</filter>
</defs>
</svg>
