<svg width="2300" height="2300" viewBox="0 0 2300 2300" fill="none" xmlns="http://www.w3.org/2000/svg">
<circle cx="1150" cy="1150" r="1150" fill="white"/>
<path d="M400.505 1318.74H633.781V1407H290.642V873.797H400.505V1318.74ZM1111.69 1152.48C1111.69 1204.97 1102.41 1250.99 1083.85 1290.54C1065.3 1330.1 1038.69 1360.61 1004.02 1382.1C969.597 1403.58 930.046 1414.32 885.368 1414.32C841.179 1414.32 801.75 1403.7 767.082 1382.46C732.414 1361.22 705.559 1330.95 686.516 1291.64C667.473 1252.09 657.829 1206.68 657.585 1155.41V1129.05C657.585 1076.56 666.984 1030.41 685.783 990.618C704.826 950.579 731.56 919.939 765.983 898.699C800.651 877.215 840.202 866.473 884.636 866.473C929.069 866.473 968.498 877.215 1002.92 898.699C1037.59 919.939 1064.32 950.579 1083.12 990.618C1102.17 1030.41 1111.69 1076.43 1111.69 1128.68V1152.48ZM1000.36 1128.31C1000.36 1072.41 990.349 1029.92 970.329 1000.87C950.31 971.819 921.745 957.293 884.636 957.293C847.771 957.293 819.328 971.697 799.309 1000.51C779.289 1029.07 769.157 1071.06 768.913 1126.48V1152.48C768.913 1206.93 778.923 1249.16 798.942 1279.19C818.962 1309.22 847.771 1324.24 885.368 1324.24C922.233 1324.24 950.554 1309.83 970.329 1281.02C990.104 1251.97 1000.11 1209.73 1000.36 1154.31V1128.31ZM1613.4 1339.62C1593.62 1363.3 1565.67 1381.73 1529.53 1394.92C1493.4 1407.85 1453.36 1414.32 1409.42 1414.32C1363.27 1414.32 1322.75 1404.31 1287.83 1384.29C1253.17 1364.03 1226.31 1334.73 1207.27 1296.4C1188.47 1258.07 1178.83 1213.03 1178.34 1161.27V1125.02C1178.34 1071.79 1187.25 1025.77 1205.07 986.956C1223.14 947.894 1249.02 918.108 1282.71 897.601C1316.64 876.849 1356.32 866.473 1401.73 866.473C1464.96 866.473 1514.4 881.609 1550.04 911.883C1585.69 941.912 1606.8 985.735 1613.4 1043.35H1506.46C1501.58 1012.83 1490.71 990.496 1473.87 976.336C1457.27 962.176 1434.32 955.096 1405.02 955.096C1367.67 955.096 1339.23 969.134 1319.69 997.21C1300.16 1025.29 1290.28 1067.03 1290.03 1122.45V1156.51C1290.03 1212.42 1300.65 1254.66 1321.89 1283.22C1343.13 1311.79 1374.26 1326.07 1415.28 1326.07C1456.54 1326.07 1485.95 1317.28 1503.53 1299.7V1207.78H1403.56V1126.85H1613.4V1339.62ZM2140.74 1152.48C2140.74 1204.97 2131.46 1250.99 2112.91 1290.54C2094.35 1330.1 2067.74 1360.61 2033.07 1382.1C1998.65 1403.58 1959.1 1414.32 1914.42 1414.32C1870.23 1414.32 1830.8 1403.7 1796.13 1382.46C1761.47 1361.22 1734.61 1330.95 1715.57 1291.64C1696.53 1252.09 1686.88 1206.68 1686.64 1155.41V1129.05C1686.64 1076.56 1696.04 1030.41 1714.84 990.618C1733.88 950.579 1760.61 919.939 1795.04 898.699C1829.7 877.215 1869.25 866.473 1913.69 866.473C1958.12 866.473 1997.55 877.215 2031.97 898.699C2066.64 919.939 2093.38 950.579 2112.17 990.618C2131.22 1030.41 2140.74 1076.43 2140.74 1128.68V1152.48ZM2029.41 1128.31C2029.41 1072.41 2019.4 1029.92 1999.38 1000.87C1979.36 971.819 1950.8 957.293 1913.69 957.293C1876.82 957.293 1848.38 971.697 1828.36 1000.51C1808.34 1029.07 1798.21 1071.06 1797.97 1126.48V1152.48C1797.97 1206.93 1807.98 1249.16 1828 1279.19C1848.01 1309.22 1876.82 1324.24 1914.42 1324.24C1951.29 1324.24 1979.61 1309.83 1999.38 1281.02C2019.16 1251.97 2029.17 1209.73 2029.41 1154.31V1128.31Z" fill="url(#paint0_linear)"/>
<defs>
<linearGradient id="paint0_linear" x1="1208" y1="711" x2="1208" y2="1590" gradientUnits="userSpaceOnUse">
<stop offset="0.395833"/>
<stop offset="0.895833" stop-color="#B0B0B0"/>
</linearGradient>
</defs>
</svg>
