<svg width="1851" height="549" viewBox="0 0 1851 549" fill="none" xmlns="http://www.w3.org/2000/svg">
<path d="M110.505 452.743H343.781V541H0.641602V7.79688H110.505V452.743ZM821.687 286.483C821.687 338.974 812.409 384.994 793.854 424.545C775.3 464.096 748.688 494.613 714.021 516.098C679.597 537.582 640.046 548.324 595.368 548.324C551.179 548.324 511.75 537.704 477.082 516.464C442.414 495.224 415.559 464.95 396.516 425.644C377.473 386.093 367.829 340.683 367.585 289.413V263.046C367.585 210.556 376.984 164.413 395.783 124.618C414.826 84.5791 441.56 53.9395 475.983 32.6992C510.651 11.2148 550.202 0.472656 594.636 0.472656C639.069 0.472656 678.498 11.2148 712.922 32.6992C747.59 53.9395 774.323 84.5791 793.122 124.618C812.165 164.413 821.687 210.434 821.687 262.68V286.483ZM710.358 262.313C710.358 206.405 700.349 163.925 680.329 134.872C660.31 105.819 631.745 91.293 594.636 91.293C557.771 91.293 529.328 105.697 509.309 134.506C489.289 163.07 479.157 205.062 478.913 260.482V286.483C478.913 340.927 488.923 383.163 508.942 413.192C528.962 443.222 557.771 458.236 595.368 458.236C632.233 458.236 660.554 443.832 680.329 415.023C700.104 385.971 710.114 343.734 710.358 288.314V262.313ZM1323.4 473.617C1303.62 497.299 1275.67 515.731 1239.53 528.915C1203.4 541.854 1163.36 548.324 1119.42 548.324C1073.27 548.324 1032.75 538.314 997.834 518.295C963.166 498.031 936.311 468.734 917.268 430.404C898.469 392.074 888.825 347.03 888.337 295.272V259.018C888.337 205.795 897.248 159.774 915.07 120.956C933.137 81.8936 959.016 52.1084 992.707 31.6006C1026.64 10.8486 1066.32 0.472656 1111.73 0.472656C1174.96 0.472656 1224.4 15.6094 1260.04 45.8828C1295.69 75.9121 1316.8 119.735 1323.4 177.353H1216.46C1211.58 146.835 1200.71 124.496 1183.87 110.336C1167.27 96.1758 1144.32 89.0957 1115.02 89.0957C1077.67 89.0957 1049.23 103.134 1029.69 131.21C1010.16 159.286 1000.28 201.034 1000.03 256.454V290.512C1000.03 346.42 1010.65 388.656 1031.89 417.221C1053.13 445.785 1084.26 460.067 1125.28 460.067C1166.54 460.067 1195.95 451.278 1213.53 433.7V341.781H1113.56V260.849H1323.4V473.617ZM1850.74 286.483C1850.74 338.974 1841.46 384.994 1822.91 424.545C1804.35 464.096 1777.74 494.613 1743.07 516.098C1708.65 537.582 1669.1 548.324 1624.42 548.324C1580.23 548.324 1540.8 537.704 1506.13 516.464C1471.47 495.224 1444.61 464.95 1425.57 425.644C1406.53 386.093 1396.88 340.683 1396.64 289.413V263.046C1396.64 210.556 1406.04 164.413 1424.84 124.618C1443.88 84.5791 1470.61 53.9395 1505.04 32.6992C1539.7 11.2148 1579.25 0.472656 1623.69 0.472656C1668.12 0.472656 1707.55 11.2148 1741.97 32.6992C1776.64 53.9395 1803.38 84.5791 1822.17 124.618C1841.22 164.413 1850.74 210.434 1850.74 262.68V286.483ZM1739.41 262.313C1739.41 206.405 1729.4 163.925 1709.38 134.872C1689.36 105.819 1660.8 91.293 1623.69 91.293C1586.82 91.293 1558.38 105.697 1538.36 134.506C1518.34 163.07 1508.21 205.062 1507.97 260.482V286.483C1507.97 340.927 1517.98 383.163 1538 413.192C1558.01 443.222 1586.82 458.236 1624.42 458.236C1661.29 458.236 1689.61 443.832 1709.38 415.023C1729.16 385.971 1739.17 343.734 1739.41 288.314V262.313Z" fill="black"/>
</svg>
