<svg width="2300" height="2300" viewBox="0 0 2300 2300" fill="none" xmlns="http://www.w3.org/2000/svg">
<circle cx="1150" cy="1150" r="1150" fill="white"/>
<path d="M342.505 1318.74H575.781V1407H232.642V873.797H342.505V1318.74ZM1053.69 1152.48C1053.69 1204.97 1044.41 1250.99 1025.85 1290.54C1007.3 1330.1 980.688 1360.61 946.021 1382.1C911.597 1403.58 872.046 1414.32 827.368 1414.32C783.179 1414.32 743.75 1403.7 709.082 1382.46C674.414 1361.22 647.559 1330.95 628.516 1291.64C609.473 1252.09 599.829 1206.68 599.585 1155.41V1129.05C599.585 1076.56 608.984 1030.41 627.783 990.618C646.826 950.579 673.56 919.939 707.983 898.699C742.651 877.215 782.202 866.473 826.636 866.473C871.069 866.473 910.498 877.215 944.922 898.699C979.59 919.939 1006.32 950.579 1025.12 990.618C1044.17 1030.41 1053.69 1076.43 1053.69 1128.68V1152.48ZM942.358 1128.31C942.358 1072.41 932.349 1029.92 912.329 1000.87C892.31 971.819 863.745 957.293 826.636 957.293C789.771 957.293 761.328 971.697 741.309 1000.51C721.289 1029.07 711.157 1071.06 710.913 1126.48V1152.48C710.913 1206.93 720.923 1249.16 740.942 1279.19C760.962 1309.22 789.771 1324.24 827.368 1324.24C864.233 1324.24 892.554 1309.83 912.329 1281.02C932.104 1251.97 942.114 1209.73 942.358 1154.31V1128.31ZM1555.4 1339.62C1535.62 1363.3 1507.67 1381.73 1471.53 1394.92C1435.4 1407.85 1395.36 1414.32 1351.42 1414.32C1305.27 1414.32 1264.75 1404.31 1229.83 1384.29C1195.17 1364.03 1168.31 1334.73 1149.27 1296.4C1130.47 1258.07 1120.83 1213.03 1120.34 1161.27V1125.02C1120.34 1071.79 1129.25 1025.77 1147.07 986.956C1165.14 947.894 1191.02 918.108 1224.71 897.601C1258.64 876.849 1298.32 866.473 1343.73 866.473C1406.96 866.473 1456.4 881.609 1492.04 911.883C1527.69 941.912 1548.8 985.735 1555.4 1043.35H1448.46C1443.58 1012.83 1432.71 990.496 1415.87 976.336C1399.27 962.176 1376.32 955.096 1347.02 955.096C1309.67 955.096 1281.23 969.134 1261.69 997.21C1242.16 1025.29 1232.28 1067.03 1232.03 1122.45V1156.51C1232.03 1212.42 1242.65 1254.66 1263.89 1283.22C1285.13 1311.79 1316.26 1326.07 1357.28 1326.07C1398.54 1326.07 1427.95 1317.28 1445.53 1299.7V1207.78H1345.56V1126.85H1555.4V1339.62ZM2082.74 1152.48C2082.74 1204.97 2073.46 1250.99 2054.91 1290.54C2036.35 1330.1 2009.74 1360.61 1975.07 1382.1C1940.65 1403.58 1901.1 1414.32 1856.42 1414.32C1812.23 1414.32 1772.8 1403.7 1738.13 1382.46C1703.47 1361.22 1676.61 1330.95 1657.57 1291.64C1638.53 1252.09 1628.88 1206.68 1628.64 1155.41V1129.05C1628.64 1076.56 1638.04 1030.41 1656.84 990.618C1675.88 950.579 1702.61 919.939 1737.04 898.699C1771.7 877.215 1811.25 866.473 1855.69 866.473C1900.12 866.473 1939.55 877.215 1973.97 898.699C2008.64 919.939 2035.38 950.579 2054.17 990.618C2073.22 1030.41 2082.74 1076.43 2082.74 1128.68V1152.48ZM1971.41 1128.31C1971.41 1072.41 1961.4 1029.92 1941.38 1000.87C1921.36 971.819 1892.8 957.293 1855.69 957.293C1818.82 957.293 1790.38 971.697 1770.36 1000.51C1750.34 1029.07 1740.21 1071.06 1739.97 1126.48V1152.48C1739.97 1206.93 1749.98 1249.16 1770 1279.19C1790.01 1309.22 1818.82 1324.24 1856.42 1324.24C1893.29 1324.24 1921.61 1309.83 1941.38 1281.02C1961.16 1251.97 1971.17 1209.73 1971.41 1154.31V1128.31Z" fill="black"/>
</svg>
