<svg width="275" height="488" viewBox="0 0 275 488" fill="none" xmlns="http://www.w3.org/2000/svg">
<circle cx="25" cy="25" r="25" fill="#F5F7FA"/>
<rect x="69" y="10" width="206" height="9" rx="4.5" fill="#F5F7FA"/>
<rect x="69" y="30" width="173" height="9" rx="4.5" fill="#F5F7FA"/>
<circle cx="25" cy="98" r="25" fill="#F5F7FA"/>
<rect x="69" y="83" width="206" height="9" rx="4.5" fill="#F5F7FA"/>
<rect x="69" y="103" width="173" height="9" rx="4.5" fill="#F5F7FA"/>
<circle cx="25" cy="171" r="25" fill="#F5F7FA"/>
<rect x="69" y="156" width="206" height="9" rx="4.5" fill="#F5F7FA"/>
<rect x="69" y="176" width="173" height="9" rx="4.5" fill="#F5F7FA"/>
<circle cx="25" cy="244" r="25" fill="#F5F7FA"/>
<rect x="69" y="229" width="206" height="9" rx="4.5" fill="#F5F7FA"/>
<rect x="69" y="249" width="173" height="9" rx="4.5" fill="#F5F7FA"/>
<circle cx="25" cy="317" r="25" fill="#F5F7FA"/>
<rect x="69" y="302" width="206" height="9" rx="4.5" fill="#F5F7FA"/>
<rect x="69" y="322" width="173" height="9" rx="4.5" fill="#F5F7FA"/>
<circle cx="25" cy="390" r="25" fill="#F5F7FA"/>
<rect x="69" y="375" width="206" height="9" rx="4.5" fill="#F5F7FA"/>
<rect x="69" y="395" width="173" height="9" rx="4.5" fill="#F5F7FA"/>
<circle cx="25" cy="463" r="25" fill="#F5F7FA"/>
<rect x="69" y="448" width="206" height="9" rx="4.5" fill="#F5F7FA"/>
<rect x="69" y="468" width="173" height="9" rx="4.5" fill="#F5F7FA"/>
</svg>
